<svg version="1.1" id="Layer_1" xmlns="http://www.w3.org/2000/svg" xmlns:xlink="http://www.w3.org/1999/xlink" x="0px" y="0px"
	 width="100%" viewBox="0 0 496 496" enable-background="new 0 0 496 496" xml:space="preserve">
<path fill="#000000" opacity="1.000000" stroke="none" 
	d="
M362.334595,217.042328 
	C363.397003,238.006607 358.734039,257.087555 348.111481,275.919891 
	C347.015198,270.251068 348.517334,265.643402 348.034088,260.998474 
	C346.946869,250.548462 342.974335,241.742142 335.390015,234.616989 
	C332.874237,232.253510 331.947906,229.665283 331.720581,226.291656 
	C329.321747,190.690857 312.404541,164.444763 280.904083,147.527832 
	C257.582642,135.003342 232.713287,132.065521 206.841766,135.074387 
	C196.405304,136.288162 196.611664,136.446182 195.904800,146.787949 
	C194.699524,164.421295 195.653641,182.078934 195.011703,199.718735 
	C194.509354,213.522491 194.208618,227.344101 194.312485,241.154083 
	C194.352798,246.516434 190.063049,247.266663 186.941940,249.681442 
	C194.169724,250.643539 194.190750,250.870087 193.612900,258.156433 
	C193.231903,262.960358 193.238617,267.809937 193.349152,272.632721 
	C193.424957,275.940369 192.459457,277.515533 188.833588,277.397919 
	C182.344009,277.187500 175.839493,277.222321 169.347366,277.390991 
	C165.792572,277.483368 164.705994,275.920166 164.779160,272.589203 
	C165.429916,242.966934 166.057068,213.343887 166.570557,183.718994 
	C166.798584,170.563065 166.689362,157.401474 166.870743,144.244370 
	C166.914246,141.087784 165.556625,140.126923 162.649872,140.313324 
	C156.676422,140.696335 150.697052,141.000381 144.716492,141.249863 
	C143.143814,141.315491 141.439178,141.579971 139.206085,139.829620 
	C145.515213,135.629211 151.555649,131.966476 157.193924,127.764175 
	C164.426910,122.373322 171.738724,120.392426 181.196518,121.249077 
	C198.725403,122.836792 216.406509,121.440422 234.035263,120.182602 
	C267.047058,117.827202 298.621887,122.956039 326.220764,142.602982 
	C347.375366,157.662415 357.809937,179.328232 361.360138,204.636276 
	C361.914856,208.590622 362.568634,212.532532 362.334595,217.042328 
z"/>
<path fill="#000000" opacity="1.000000" stroke="none" 
	d="
M290.144684,312.879822 
	C302.785339,312.878235 314.949493,313.060150 327.103790,312.793365 
	C332.288757,312.679565 335.966522,314.771851 339.304443,318.371979 
	C357.469391,337.963928 354.722931,370.250916 333.491669,387.855835 
	C318.546661,400.248230 300.902588,406.330353 282.283447,410.053833 
	C264.840790,413.542084 247.163483,411.943085 228.387634,412.276978 
	C239.992538,401.327820 237.751221,387.598236 238.535828,374.844543 
	C239.710510,355.750092 240.057281,336.603058 240.622177,317.474457 
	C240.714508,314.347717 241.764099,312.840179 244.980515,312.884308 
	C250.309799,312.957489 255.640839,312.907837 260.971130,312.902832 
	C263.672089,312.900299 264.678711,314.049805 264.620178,316.913879 
	C264.211884,336.883606 263.530731,356.842194 262.210144,376.771027 
	C261.697845,384.502289 259.735046,391.856903 253.878204,398.409485 
	C261.871033,400.423370 269.548492,399.605438 277.019287,400.568512 
	C280.789001,401.054443 284.703461,400.348541 288.496674,400.732544 
	C304.532104,402.355896 314.305023,393.743256 320.902222,380.614594 
	C326.510986,369.453003 328.234680,357.539825 325.092224,345.217285 
	C321.857849,332.534210 313.274994,325.173309 301.157928,321.377502 
	C293.903046,319.104828 286.434418,318.929413 278.928162,319.020325 
	C277.339386,319.039581 275.645599,319.758820 273.722229,318.216797 
	C278.481140,314.285004 283.713745,312.597961 290.144684,312.879822 
z"/>
<path fill="#000000" opacity="1.000000" stroke="none" 
	d="
M233.400085,242.454437 
	C228.819962,243.246231 224.745483,243.136673 220.507324,241.161713 
	C230.386688,236.932709 237.582367,227.471863 250.166595,228.479660 
	C261.584198,229.394073 273.128601,228.410492 284.607513,228.258896 
	C299.961426,228.056122 315.367126,229.535080 328.074554,239.884735 
	C337.612854,247.653259 341.815125,261.850098 338.501251,273.336395 
	C337.654999,276.269562 336.267548,277.450775 333.263580,277.371582 
	C327.767426,277.226715 322.264801,277.298889 316.765106,277.329987 
	C314.421204,277.343231 312.794189,276.563782 312.889618,273.943359 
	C313.185638,265.816986 311.772736,258.268524 305.370544,252.557922 
	C297.668915,245.688263 288.134125,243.509842 278.255707,242.338470 
	C276.934326,242.181793 275.583160,242.261673 274.266846,242.079727 
	C265.554108,240.875473 266.429321,240.944748 266.323334,249.062897 
	C266.221100,256.894073 266.015320,264.724976 266.015686,272.556000 
	C266.015869,276.174469 264.563904,277.601349 260.890991,277.408447 
	C256.237152,277.163971 251.551666,277.162109 246.897156,277.397888 
	C242.868835,277.601929 241.564621,275.836578 241.782883,272.056885 
	C242.185883,265.078552 242.518494,258.091705 242.662201,251.103943 
	C242.844528,242.237350 244.457565,242.195496 233.400085,242.454437 
z"/>
<path fill="#000000" opacity="1.000000" stroke="none" 
	d="
M190.999969,351.212585 
	C178.291672,351.212830 166.083389,351.212830 153.875092,351.212830 
	C153.711044,350.809235 153.547012,350.405640 153.382965,350.002045 
	C163.106888,341.299103 163.235626,329.409515 164.321396,317.956787 
	C164.724854,313.701050 166.562561,312.705475 170.360779,312.822327 
	C176.797531,313.020325 183.244797,312.876740 190.208542,312.876740 
	C189.717072,320.495178 185.852402,325.618866 181.478607,331.270081 
	C189.702393,331.757477 197.253036,332.349976 204.815140,332.611206 
	C211.969421,332.858276 219.135849,332.806274 226.296692,332.788818 
	C229.779999,332.780273 231.297150,334.074097 231.328491,337.835754 
	C231.430878,350.130402 231.537735,349.867065 219.439240,350.444336 
	C210.124878,350.888763 200.823227,351.304932 190.999969,351.212585 
z"/>
<path fill="#000000" opacity="1.000000" stroke="none" 
	d="
M217.128845,284.541748 
	C218.641693,283.842865 220.639053,283.206116 220.481430,285.088715 
	C219.983505,291.035034 221.247925,297.107086 219.302521,302.928253 
	C219.068298,303.629059 218.299530,304.151276 217.481888,305.100677 
	C213.888412,301.156036 210.452423,297.384247 206.539627,293.089050 
	C204.831482,296.386902 205.242249,298.891541 205.493759,301.167725 
	C205.770126,303.668549 206.664413,305.990540 202.112839,305.003357 
	C203.674942,298.058228 201.406525,290.856934 204.489502,282.521606 
	C207.544846,289.485138 211.943680,293.781982 217.097046,298.272736 
	C218.128952,293.372711 217.760529,289.089966 217.128845,284.541748 
z"/>
<path fill="#000000" opacity="1.000000" stroke="none" 
	d="
M313.897522,299.838196 
	C315.706604,303.085571 318.345215,303.143707 321.024719,302.394379 
	C323.932434,301.581207 323.764404,299.021820 323.763489,296.667664 
	C323.762054,292.871338 323.763123,289.075012 323.763123,284.953308 
	C324.613647,284.042023 325.985352,283.781097 327.884888,284.322784 
	C327.771393,290.993256 326.099854,297.853638 329.060547,305.290863 
	C324.120941,304.335449 319.601227,305.524750 315.057037,305.403229 
	C311.055664,305.296204 310.036896,301.979889 309.894043,298.660583 
	C309.702484,294.209076 309.846649,289.743134 309.846649,285.165039 
	C311.247131,284.056915 312.878113,283.623352 315.141266,284.317474 
	C313.219818,289.368408 312.866150,294.382294 313.897522,299.838196 
z"/>
<path fill="#000000" opacity="1.000000" stroke="none" 
	d="
M135.451752,305.120483 
	C133.432526,301.180267 135.100281,297.271851 134.718475,293.400970 
	C134.460266,290.783081 134.797150,288.107025 133.449814,285.720001 
	C137.262695,282.974457 144.581741,282.975403 148.864471,285.706818 
	C152.332413,287.918579 153.570511,291.245026 152.915298,295.145752 
	C152.060852,300.232544 147.377609,304.439117 141.834183,305.202240 
	C139.882767,305.470856 137.863327,305.245331 135.451752,305.120483 
M149.491669,294.544312 
	C148.815475,290.429565 146.714584,287.494080 142.499390,286.539948 
	C140.382675,286.060822 138.370682,286.295502 138.329544,289.180389 
	C138.266861,293.576202 138.313126,297.973602 138.313126,302.330872 
	C145.276031,303.134766 147.229630,301.853333 149.491669,294.544312 
z"/>
<path fill="#000000" opacity="1.000000" stroke="none" 
	d="
M265.280823,289.633362 
	C265.022522,291.288086 264.514862,292.422821 265.110107,293.848969 
	C268.000305,300.773468 265.059601,305.139648 257.472321,305.354095 
	C256.177734,305.390686 254.812134,305.587891 253.525955,304.475616 
	C253.483734,298.078827 254.223358,291.537506 253.155075,285.085266 
	C259.939667,282.558563 264.043671,283.997284 265.280823,289.633362 
M260.317657,287.483276 
	C258.427460,286.583679 257.447876,287.274933 257.407257,289.272919 
	C257.333435,292.902557 257.330170,296.533813 257.325409,300.164459 
	C257.323578,301.559235 257.564362,302.962952 259.292969,303.071259 
	C260.938263,303.174408 262.101715,302.278229 262.633514,300.677856 
	C263.740997,297.345154 261.481964,295.671692 259.155792,294.399719 
	C259.872040,291.950409 262.978973,290.570374 260.317657,287.483276 
z"/>
<path fill="#000000" opacity="1.000000" stroke="none" 
	d="
M289.221832,299.145020 
	C291.753113,294.062988 292.559326,288.475586 296.793243,283.926331 
	C301.246704,290.476227 300.272156,298.379761 305.228302,304.134705 
	C301.791016,306.302094 299.925751,305.245361 299.045746,301.765228 
	C298.501221,299.611755 298.249756,297.520172 295.006104,298.052765 
	C292.208557,298.512115 290.571167,299.947266 290.792175,302.588379 
	C291.115906,306.456940 288.704865,304.825226 286.954773,305.371704 
	C286.683685,302.647491 288.548615,301.321625 289.221832,299.145020 
z"/>
<path fill="#000000" opacity="1.000000" stroke="none" 
	d="
M176.689972,304.734192 
	C173.422241,303.525940 173.810211,300.426178 172.803177,298.121368 
	C171.017609,294.034698 169.530167,289.817749 167.805054,285.363770 
	C170.684860,283.352570 172.425705,283.261047 173.404694,287.521149 
	C174.308884,291.455658 176.063705,295.194672 177.759247,299.893860 
	C180.801193,294.685974 183.590195,290.616638 181.890488,285.288025 
	C183.513382,284.040771 185.094330,283.414215 187.259369,284.595581 
	C184.259125,291.517944 182.749481,299.107330 176.689972,304.734192 
z"/>
<path fill="#000000" opacity="1.000000" stroke="none" 
	d="
M233.649734,305.380646 
	C231.307602,305.252930 229.288635,305.857483 226.929596,304.685120 
	C226.929596,298.473907 226.929596,292.064117 226.929596,284.890625 
	C230.262024,283.119537 234.296371,283.596497 238.760254,284.395386 
	C237.222229,288.193176 230.282181,284.241058 231.253006,290.431213 
	C231.801086,293.925903 235.327560,291.773804 237.173157,293.924255 
	C233.693359,295.601318 228.684433,296.489197 231.885056,302.837006 
	C232.769714,303.851440 235.263687,302.185425 236.752609,303.736237 
	C236.475998,305.540558 235.108658,305.190979 233.649734,305.380646 
z"/>
<path fill="#000000" opacity="1.000000" stroke="none" 
	d="
M344.463379,286.963440 
	C342.708557,292.715729 341.941620,298.281097 343.630615,304.308014 
	C342.472107,305.909973 340.759491,305.244141 339.088409,304.935852 
	C339.088409,301.679962 339.084198,298.723907 339.089233,295.767822 
	C339.101807,288.377594 339.103485,288.377594 332.766052,286.164581 
	C335.037689,283.468689 345.117340,282.713928 350.432678,284.873627 
	C349.261169,287.696411 346.505066,285.727203 344.463379,286.963440 
z"/>
<path fill="#000000" opacity="1.000000" stroke="none" 
	d="
M358.561951,294.621826 
	C356.634216,291.311432 355.094421,288.210907 352.224609,285.513641 
	C354.849640,284.343170 356.913116,281.865021 358.441376,286.073547 
	C359.231079,288.248230 360.370087,290.250183 362.390076,292.068604 
	C364.195740,290.080780 366.436096,288.492310 364.550537,285.424164 
	C366.326935,284.206116 367.921967,283.601837 370.209564,284.231781 
	C367.247070,290.917725 360.024231,296.179749 364.569122,304.391602 
	C362.825531,305.576080 361.471008,305.606079 360.033875,304.671112 
	C358.992065,301.520782 360.580933,298.001862 358.561951,294.621826 
z"/>
<path fill="#000000" opacity="1.000000" stroke="none" 
	d="
M280.332947,292.802979 
	C282.716553,293.600494 281.909821,294.893829 280.660919,294.982452 
	C277.308990,295.220245 276.069244,296.597504 276.207031,299.999878 
	C276.370026,304.023346 280.019714,302.281433 282.569244,304.425842 
	C278.772736,305.871063 275.622192,305.519012 272.404541,304.986389 
	C272.541016,298.340027 273.044403,291.921875 271.922028,285.087280 
	C275.400330,283.184937 279.344482,283.786407 283.429169,284.272308 
	C283.164703,286.958038 281.383759,286.405975 280.048981,286.388092 
	C277.915100,286.359528 276.541168,286.986389 276.340149,289.380493 
	C276.106567,292.162689 277.629395,292.866150 280.332947,292.802979 
z"/>
<path fill="#000000" opacity="1.000000" stroke="none" 
	d="
M284.069641,333.179077 
	C280.437103,334.710114 277.398193,336.788940 273.746796,337.208496 
	C271.321167,329.636017 272.628815,327.635376 280.012909,327.694763 
	C283.400208,327.721985 286.872742,327.147430 290.656281,328.506592 
	C289.334534,331.468140 286.420959,331.668488 284.069641,333.179077 
z"/>
<path fill="#000000" opacity="1.000000" stroke="none" 
	d="
M196.429276,303.771423 
	C195.137817,306.230804 193.426514,305.520721 191.519974,304.838104 
	C191.655579,298.278534 192.499588,291.715149 191.078766,285.139832 
	C192.413895,283.524231 194.002213,283.363556 195.946304,284.394012 
	C195.857590,290.747009 194.059448,297.149017 196.429276,303.771423 
z"/>
<path fill="#000000" opacity="1.000000" stroke="none" 
	d="
M162.291504,289.465942 
	C162.595810,294.778992 161.184113,299.710358 163.011322,304.379059 
	C161.466034,305.641998 160.049530,305.466705 158.308319,304.777466 
	C158.356339,298.365814 159.601166,291.787781 157.712341,285.225403 
	C158.758133,283.670044 160.261047,283.531219 162.028809,284.196777 
	C162.971939,285.754730 162.137238,287.423096 162.291504,289.465942 
z"/>
</svg>